<?xml version="1.0" encoding="UTF-8" standalone="no"?>
<!-- Created with Inkscape (http://www.inkscape.org/) -->

<svg
   width="196.5"
   height="65.5"
   viewBox="0 0 51.990623 17.330208"
   version="1.1"
   id="svg1"
   inkscape:version="1.4 (86a8ad7, 2024-10-11)"
   sodipodi:docname="Logo_unfonted.svg"
   inkscape:export-filename="logo.png"
   inkscape:export-xdpi="96"
   inkscape:export-ydpi="96"
   xml:space="preserve"
   xmlns:inkscape="http://www.inkscape.org/namespaces/inkscape"
   xmlns:sodipodi="http://sodipodi.sourceforge.net/DTD/sodipodi-0.dtd"
   xmlns="http://www.w3.org/2000/svg"
   xmlns:svg="http://www.w3.org/2000/svg"><sodipodi:namedview
     id="namedview1"
     pagecolor="#ffffff"
     bordercolor="#000000"
     borderopacity="0.25"
     inkscape:showpageshadow="2"
     inkscape:pageopacity="0.0"
     inkscape:pagecheckerboard="0"
     inkscape:deskcolor="#d1d1d1"
     inkscape:document-units="px"
     showborder="false"
     inkscape:zoom="4"
     inkscape:cx="147.125"
     inkscape:cy="110.125"
     inkscape:window-width="2560"
     inkscape:window-height="1369"
     inkscape:window-x="2552"
     inkscape:window-y="-8"
     inkscape:window-maximized="1"
     inkscape:current-layer="svg1"
     inkscape:export-bgcolor="#ffffffff"
     showguides="true"
     showgrid="false"><inkscape:grid
       id="grid1"
       units="px"
       originx="-2.607763e-05"
       originy="0.13230217"
       spacingx="0.26458333"
       spacingy="0.26458334"
       empcolor="#0099e5"
       empopacity="0.30196078"
       color="#0099e5"
       opacity="0.14901961"
       empspacing="5"
       enabled="true"
       visible="false" /></sodipodi:namedview><defs
     id="defs1" /><rect
     style="fill:#1264a1;fill-opacity:1;stroke-width:1.1045"
     id="rect2"
     height="17.330208"
     x="0"
     y="0"
     rx="7.1487107"
     inkscape:label="rectangle"
     width="51.990623"
     ry="8.2485132" /><g
     inkscape:label="Background"
     inkscape:groupmode="layer"
     id="layer1"
     transform="translate(-49.412925,-50.651725)" /><g
     id="g1"
     inkscape:label="g1"
     transform="matrix(0.43666666,0,0,0.43666666,4.5884314e-5,1.0779666)"
     style="stroke-width:2.29008"><path
       id="rect4"
       style="fill:#ffffff;stroke-width:0.605915"
       d="m 91.207971,25.99785 c -0.94321,0 -1.70273,0.708025 -1.70273,1.5875 0,0.879475 0.75952,1.5875 1.70273,1.5875 h 1.88361 c 0.79481,0 1.45912,-0.502576 1.64848,-1.187008 h 0.0155 v -0.06253 c 0.0251,-0.108823 0.0388,-0.221942 0.0388,-0.337964 0,-0.116023 -0.0137,-0.228624 -0.0388,-0.337447 v -1.250053 h -1.66398 -1.46968 z"
       inkscape:label="y_underline" /><path
       style="font-size:25.4px;font-family:'Arial Rounded MT Bold';-inkscape-font-specification:'Arial Rounded MT Bold, ';fill:#ffffff;stroke-width:0.605915"
       d="M 16.220304,21.893703 V 7.5689959 q 0,-1.1162109 0.508496,-1.6743164 0.508496,-0.5581054 1.314649,-0.5581054 0.830957,0 1.339453,0.5581054 Q 19.9038,6.4403826 19.9038,7.5689959 V 21.893703 q 0,1.128613 -0.520898,1.686718 -0.508496,0.558106 -1.339453,0.558106 -0.79375,0 -1.314649,-0.558106 -0.508496,-0.570507 -0.508496,-1.686718 z M 35.828409,8.6852068 H 31.81005 V 21.893703 q 0,1.141015 -0.508496,1.699121 -0.508496,0.545703 -1.314649,0.545703 -0.818554,0 -1.339453,-0.558106 -0.508496,-0.558105 -0.508496,-1.686718 V 8.6852068 h -4.018359 q -0.942578,0 -1.401465,-0.4092773 -0.458887,-0.4216797 -0.458887,-1.1038086 0,-0.7069336 0.471289,-1.1162109 0.483692,-0.4092773 1.389063,-0.4092773 h 11.707812 q 0.954981,0 1.413867,0.4216796 0.471289,0.4216797 0.471289,1.1038086 0,0.6821289 -0.471289,1.1038086 -0.471289,0.4092773 -1.413867,0.4092773 z m 14.907616,8.5700192 q 0,1.513086 -0.471289,2.790528 -0.471289,1.277441 -1.364258,2.195214 -0.892969,0.917774 -2.133203,1.413868 -1.240234,0.483691 -2.790527,0.483691 -1.537891,0 -2.765723,-0.496094 -1.227832,-0.496094 -2.133203,-1.413867 -0.892969,-0.930176 -1.364258,-2.182812 -0.458886,-1.26504 -0.458886,-2.790528 0,-1.53789 0.471289,-2.815332 0.471289,-1.277441 1.351855,-2.182812 0.880566,-0.905371 2.133203,-1.389063 1.252637,-0.496093 2.765723,-0.496093 1.53789,0 2.790527,0.496093 1.252637,0.496094 2.145606,1.413867 0.892968,0.917774 1.351855,2.182813 0.471289,1.265039 0.471289,2.790527 z m -3.398242,0 q 0,-2.071191 -0.917774,-3.224609 -0.905371,-1.153418 -2.443261,-1.153418 -0.992188,0 -1.748731,0.520898 -0.756543,0.508496 -1.16582,1.513086 -0.409277,1.00459 -0.409277,2.344043 0,1.327051 0.396875,2.319238 0.409277,0.992188 1.153418,1.525489 0.756543,0.520898 1.773535,0.520898 1.53789,0 2.443261,-1.153418 0.917774,-1.16582 0.917774,-3.212207 z m 6.064748,4.824512 V 7.3953631 q 0,-1.0169922 0.446485,-1.5378906 0.458886,-0.5208984 1.227832,-0.5208984 0.768945,0 1.240234,0.5208984 0.471289,0.5084961 0.471289,1.5378906 V 22.079738 q 0,1.029394 -0.483691,1.550293 -0.471289,0.508496 -1.227832,0.508496 -0.744141,0 -1.21543,-0.533301 -0.458887,-0.533301 -0.458887,-1.525488 z m 19.558496,-4.824512 q 0,1.513086 -0.471289,2.790528 -0.471289,1.277441 -1.364258,2.195214 -0.892968,0.917774 -2.133203,1.413868 -1.240234,0.483691 -2.790527,0.483691 -1.537891,0 -2.765723,-0.496094 -1.227832,-0.496094 -2.133203,-1.413867 -0.892968,-0.930176 -1.364257,-2.182812 -0.458887,-1.26504 -0.458887,-2.790528 0,-1.53789 0.471289,-2.815332 0.471289,-1.277441 1.351855,-2.182812 0.880567,-0.905371 2.133203,-1.389063 1.252637,-0.496093 2.765723,-0.496093 1.537891,0 2.790527,0.496093 1.252637,0.496094 2.145606,1.413867 0.892969,0.917774 1.351855,2.182813 0.471289,1.265039 0.471289,2.790527 z m -3.398242,0 q 0,-2.071191 -0.917773,-3.224609 -0.905371,-1.153418 -2.443262,-1.153418 -0.992187,0 -1.74873,0.520898 -0.756543,0.508496 -1.165821,1.513086 -0.409277,1.00459 -0.409277,2.344043 0,1.327051 0.396875,2.319238 0.409277,0.992188 1.153418,1.525489 0.756543,0.520898 1.773535,0.520898 1.537891,0 2.443262,-1.153418 0.917773,-1.16582 0.917773,-3.212207 z m 18.516698,-4.402832 v 9.835059 q 0,1.686718 -0.359668,2.902148 -0.359668,1.21543 -1.153418,2.00918 -0.79375,0.79375 -2.083594,1.178222 -1.277441,0.384473 -3.187402,0.384473 -1.748731,0 -3.125391,-0.496094 -1.37666,-0.483691 -2.1208,-1.265039 -0.744141,-0.768945 -0.744141,-1.5875 0,-0.620117 0.42168,-1.016992 0.421679,-0.384473 1.016992,-0.384473 0.74414,0 1.302246,0.657325 0.272851,0.334863 0.558105,0.669726 0.297657,0.347266 0.644922,0.58291 0.359668,0.248047 0.855762,0.359668 0.496094,0.124024 1.141016,0.124024 1.314648,0 2.033984,-0.372071 0.731738,-0.359667 1.016992,-1.016992 0.297656,-0.657324 0.347266,-1.413867 0.04961,-0.74414 0.07441,-2.406055 -0.781348,1.091407 -1.810742,1.661915 -1.016993,0.570507 -2.43086,0.570507 -1.699121,0 -2.976562,-0.868164 -1.265039,-0.868164 -1.947168,-2.430859 -0.682129,-1.562695 -0.682129,-3.609082 0,-1.525488 0.409277,-2.75332 0.42168,-1.227832 1.190625,-2.071192 0.768946,-0.843359 1.773535,-1.265039 1.00459,-0.434082 2.207618,-0.434082 1.438671,0 2.492871,0.558106 1.054199,0.545703 1.95957,1.723925 v -0.458886 q 0,-0.880567 0.434082,-1.364258 0.434082,-0.483691 1.116211,-0.483691 0.979785,0 1.302246,0.644921 0.322461,0.63252 0.322461,1.835547 z m -9.810254,4.291211 q 0,2.058789 0.892969,3.112988 0.905371,1.0542 2.33164,1.0542 0.84336,0 1.5875,-0.446485 0.756543,-0.458887 1.227832,-1.364258 0.471289,-0.917773 0.471289,-2.220019 0,-2.071191 -0.917773,-3.224609 -0.905371,-1.153418 -2.393652,-1.153418 -1.451074,0 -2.331641,1.103808 -0.868164,1.103809 -0.868164,3.137793 z m 16.358688,7.416602 0.310058,-0.756543 -4.167187,-10.492383 q -0.384473,-0.905371 -0.384473,-1.314648 0,-0.434082 0.223242,-0.806153 0.223243,-0.37207 0.607715,-0.595312 0.396875,-0.223242 0.818555,-0.223242 0.731738,0 1.103808,0.471289 0.372071,0.458886 0.657325,1.32705 l 2.864941,8.334375 2.716113,-7.751464 q 0.322461,-0.942579 0.58291,-1.475879 0.260446,-0.533301 0.545706,-0.719336 0.29765,-0.186035 0.83095,-0.186035 0.38448,0 0.73174,0.210839 0.35967,0.198438 0.54571,0.545704 0.19843,0.347265 0.19843,0.731738 -0.0496,0.235644 -0.16123,0.669726 -0.11162,0.434082 -0.27285,0.880567 l -4.415233,11.558984 q -0.570508,1.525488 -1.116211,2.393652 -0.545703,0.868164 -1.451074,1.327051 -0.892969,0.471289 -2.418457,0.471289 -1.488281,0 -2.232422,-0.322461 -0.744141,-0.322461 -0.744141,-1.178223 0,-0.58291 0.347266,-0.905371 0.359668,-0.310058 1.054199,-0.310058 0.272852,0 0.533301,0.07441 0.322461,0.07441 0.558106,0.07441 0.58291,0 0.917773,-0.173633 0.334863,-0.173633 0.595312,-0.607715 0.272852,-0.421679 0.620118,-1.252636 z"
       id="text1"
       inkscape:label="ITology"
       aria-label="ITology" /><rect
       style="display:inline;fill:#ffffff;stroke-width:0.62749"
       id="rect3"
       width="56.751987"
       height="3.175"
       x="16.129688"
       y="25.998055"
       rx="1.7025595"
       inkscape:label="underline"
       ry="1.7025595" /></g><rect
     style="display:none;fill:#1264a1;fill-opacity:1;stroke-width:1.1045"
     id="rect2-1"
     height="34.395832"
     x="48.815601"
     y="79.771889"
     inkscape:label="rectangle"
     width="144.11501"
     ry="0.0097895833"
     rx="0.0097895833" /></svg>
